<svg xmlns="http://www.w3.org/2000/svg" width="214.2" height="35" viewBox="0 0 214.2 35"><rect class="svg__rect" x="0" y="0" width="77.89" height="35" fill="#FFFFFF" data-darkreader-inline-fill="" style="--darkreader-inline-fill:#0a85ac;"/><rect class="svg__rect" x="75.89" y="0" width="138.31" height="35" fill="#C13B3A" data-darkreader-inline-fill="" style="--darkreader-inline-fill:#2272a2;"/><path class="svg__text" d="M15.78 22L14.31 22L14.31 13.47L15.78 13.47L15.78 22ZM28.05 22L26.57 22L26.57 13.47L28.05 13.47L28.05 17.02L31.87 17.02L31.87 13.47L33.34 13.47L33.34 22L31.87 22L31.87 18.21L28.05 18.21L28.05 22ZM38.86 22L37.32 22L40.54 13.47L41.87 13.47L45.10 22L43.56 22L42.86 20.01L39.55 20.01L38.86 22ZM41.21 15.28L39.97 18.82L42.44 18.82L41.21 15.28ZM50.74 14.66L48.10 14.66L48.10 13.47L54.87 13.47L54.87 14.66L52.21 14.66L52.21 22L50.74 22L50.74 14.66ZM64.20 22L58.63 22L58.63 13.47L64.16 13.47L64.16 14.66L60.11 14.66L60.11 17.02L63.61 17.02L63.61 18.19L60.11 18.19L60.11 20.82L64.20 20.82L64.20 22Z" fill="#C13B3A" data-darkreader-inline-fill="" style="--darkreader-inline-fill:#181a1b;"/><path class="svg__text" d="M89.00 20.93L89.00 20.93L90.29 19.40Q90.96 20.27 91.74 20.27L91.74 20.27Q91.74 20.27 91.75 20.27L91.75 20.27Q92.26 20.27 92.53 19.96Q92.80 19.65 92.80 19.05L92.80 19.05L92.80 15.44L89.90 15.44L89.90 13.60L95.16 13.60L95.16 18.91Q95.16 20.54 94.33 21.36Q93.51 22.17 91.92 22.17L91.92 22.17Q90.99 22.17 90.24 21.85Q89.48 21.53 89.00 20.93ZM101.66 22L99.24 22L102.95 13.60L105.29 13.60L109.00 22L106.54 22L105.87 20.37L102.32 20.37L101.66 22ZM104.10 15.93L103.02 18.61L105.18 18.61L104.10 15.93ZM115.74 22L112.15 13.60L114.72 13.60L117.00 19.07L119.33 13.60L121.68 13.60L118.08 22L115.74 22ZM127.25 22L124.82 22L128.53 13.60L130.88 13.60L134.59 22L132.12 22L131.46 20.37L127.91 20.37L127.25 22ZM129.69 15.93L128.60 18.61L130.77 18.61L129.69 15.93ZM138.16 21.24L138.16 21.24L138.94 19.49Q139.50 19.86 140.25 20.09Q140.99 20.32 141.71 20.32L141.71 20.32Q143.08 20.32 143.08 19.64L143.08 19.64Q143.08 19.28 142.69 19.11Q142.30 18.93 141.44 18.74L141.44 18.74Q140.49 18.53 139.85 18.30Q139.21 18.06 138.76 17.55Q138.31 17.03 138.31 16.16L138.31 16.16Q138.31 15.39 138.73 14.77Q139.14 14.15 139.98 13.79Q140.81 13.43 142.02 13.43L142.02 13.43Q142.85 13.43 143.65 13.62Q144.46 13.80 145.07 14.17L145.07 14.17L144.34 15.93Q143.14 15.28 142.01 15.28L142.01 15.28Q141.30 15.28 140.98 15.49Q140.66 15.70 140.66 16.04L140.66 16.04Q140.66 16.37 141.04 16.54Q141.42 16.71 142.27 16.89L142.27 16.89Q143.23 17.10 143.86 17.33Q144.49 17.56 144.96 18.07Q145.42 18.58 145.42 19.46L145.42 19.46Q145.42 20.21 145.00 20.83Q144.58 21.44 143.74 21.80Q142.90 22.17 141.70 22.17L141.70 22.17Q140.68 22.17 139.72 21.92Q138.76 21.67 138.16 21.24ZM149.57 17.80L149.57 17.80Q149.57 16.54 150.17 15.54Q150.76 14.55 151.82 13.99Q152.87 13.43 154.19 13.43L154.19 13.43Q155.34 13.43 156.26 13.84Q157.19 14.25 157.80 15.02L157.80 15.02L156.29 16.39Q155.47 15.40 154.31 15.40L154.31 15.40Q153.62 15.40 153.09 15.70Q152.56 16 152.26 16.54Q151.96 17.09 151.96 17.80L151.96 17.80Q151.96 18.51 152.26 19.05Q152.56 19.60 153.09 19.90Q153.62 20.20 154.31 20.20L154.31 20.20Q155.47 20.20 156.29 19.22L156.29 19.22L157.80 20.58Q157.19 21.35 156.27 21.76Q155.34 22.17 154.19 22.17L154.19 22.17Q152.87 22.17 151.82 21.61Q150.76 21.05 150.17 20.05Q149.57 19.06 149.57 17.80ZM164.71 22L162.34 22L162.34 13.60L166.18 13.60Q167.32 13.60 168.16 13.98Q169.00 14.35 169.45 15.06Q169.91 15.76 169.91 16.71L169.91 16.71Q169.91 17.62 169.48 18.30Q169.06 18.98 168.27 19.36L168.27 19.36L170.08 22L167.53 22L166.01 19.77L164.71 19.77L164.71 22ZM164.71 15.47L164.71 17.93L166.03 17.93Q166.77 17.93 167.14 17.61Q167.51 17.29 167.51 16.71L167.51 16.71Q167.51 16.12 167.14 15.79Q166.77 15.47 166.03 15.47L166.03 15.47L164.71 15.47ZM177.08 22L174.70 22L174.70 13.60L177.08 13.60L177.08 22ZM184.63 22L182.25 22L182.25 13.60L186.10 13.60Q187.23 13.60 188.07 13.98Q188.91 14.35 189.37 15.06Q189.83 15.76 189.83 16.71L189.83 16.71Q189.83 17.66 189.37 18.35Q188.91 19.05 188.07 19.42Q187.23 19.80 186.10 19.80L186.10 19.80L184.63 19.80L184.63 22ZM184.63 15.47L184.63 17.93L185.95 17.93Q186.68 17.93 187.05 17.61Q187.43 17.29 187.43 16.71L187.43 16.71Q187.43 16.12 187.05 15.80Q186.68 15.47 185.95 15.47L185.95 15.47L184.63 15.47ZM196.37 15.48L193.79 15.48L193.79 13.60L201.31 13.60L201.31 15.48L198.75 15.48L198.75 22L196.37 22L196.37 15.48Z" fill="#FFFFFF" x="88.89" data-darkreader-inline-fill="" style="--darkreader-inline-fill:#181a1b;"/></svg>